<svg width="94" height="120" viewBox="0 0 94 120" fill="none" xmlns="http://www.w3.org/2000/svg">
<path d="M6.556 105.876H10.34V120H6.556V114.412H3.784V120H0V105.876H3.784V111.662H6.556V105.876Z" fill="white"/>
<path d="M12.0957 105.876H15.9457V120H12.0957V105.876Z" fill="white"/>
<path d="M17.7031 105.876H24.2371C26.3931 105.876 27.4711 106.785 27.4711 108.604V112.652C27.4711 114.471 26.3931 115.38 24.2371 115.38H21.5531V120H17.7031V105.876ZM23.6211 112.146V109.11C23.6211 108.787 23.4378 108.626 23.0711 108.626H21.5531V112.63H23.0711C23.4378 112.63 23.6211 112.469 23.6211 112.146Z" fill="white"/>
<path d="M38.2491 111.156H34.3991V108.89C34.3991 108.567 34.2157 108.406 33.8491 108.406H33.0791C32.7124 108.406 32.5291 108.567 32.5291 108.89V116.986C32.5291 117.309 32.7124 117.47 33.0791 117.47H33.8491C34.2157 117.47 34.3991 117.309 34.3991 116.986V114.808H38.2491V117.272C38.2491 119.091 37.1711 120 35.0151 120H31.9131C29.7571 120 28.6791 119.091 28.6791 117.272V108.604C28.6791 106.785 29.7571 105.876 31.9131 105.876H35.0151C37.1711 105.876 38.2491 106.785 38.2491 108.604V111.156Z" fill="white"/>
<path d="M46.2376 105.876H50.0216V120H46.2376V114.412H43.4656V120H39.6816V105.876H43.4656V111.662H46.2376V105.876Z" fill="white"/>
<path d="M58.9713 120L58.5313 117.888H55.1433L54.6813 120H50.8973L54.5273 105.876H59.2133L62.8433 120H58.9713ZM55.7373 115.16H57.9373L56.8593 110.078L55.7373 115.16Z" fill="white"/>
<path d="M67.5727 114.984V120H63.7227V105.876H70.2567C72.4127 105.876 73.4907 106.785 73.4907 108.604V112.256C73.4907 113.649 72.86 114.507 71.5987 114.83L74.1947 120H70.0587L67.8147 114.984H67.5727ZM69.0907 108.626H67.5727V112.366H69.0907C69.4573 112.366 69.6407 112.205 69.6407 111.882V109.11C69.6407 108.787 69.4573 108.626 69.0907 108.626Z" fill="white"/>
<path d="M83.5374 105.876V108.626H80.8094V120H76.9594V108.626H74.2534V105.876H83.5374Z" fill="white"/>
<path d="M89.9315 116.766V114.764C89.9315 114.441 89.7482 114.28 89.3815 114.28H87.2695C86.1842 114.28 85.4142 114.045 84.9595 113.576C84.5195 113.092 84.2995 112.403 84.2995 111.508V108.604C84.2995 106.785 85.3702 105.876 87.5115 105.876H90.5255C92.6669 105.876 93.7375 106.785 93.7375 108.604V110.298H89.8875V109.11C89.8875 108.787 89.7042 108.626 89.3375 108.626H88.6995C88.3329 108.626 88.1495 108.787 88.1495 109.11V111.2C88.1495 111.523 88.3329 111.684 88.6995 111.684H90.7675C91.8529 111.684 92.6229 111.911 93.0775 112.366C93.5469 112.821 93.7815 113.488 93.7815 114.368V117.272C93.7815 119.091 92.7109 120 90.5695 120H87.5775C85.4215 120 84.3435 119.091 84.3435 117.272V115.578H88.1935V116.766C88.1935 117.089 88.3769 117.25 88.7435 117.25H89.3815C89.7482 117.25 89.9315 117.089 89.9315 116.766Z" fill="white"/>
<rect x="1.78308" width="28.3182" height="28.3182" fill="#0066FF"/>
<rect x="1.78308" y="30.3409" width="28.3182" height="28.3182" fill="#0066FF"/>
<rect x="1.78308" y="60.6817" width="28.3182" height="28.3182" fill="#0066FF"/>
<rect x="32.124" y="30.3409" width="28.3182" height="28.3182" fill="#0066FF"/>
<rect x="62.4649" width="28.3182" height="28.3182" fill="#0066FF"/>
<rect x="62.4649" y="30.3409" width="28.3182" height="28.3182" fill="#0066FF"/>
<rect x="62.4649" y="60.6817" width="28.3182" height="28.3182" fill="#0066FF"/>
</svg>
