<svg width="159" height="24" viewBox="0 0 159 24" fill="none" xmlns="http://www.w3.org/2000/svg">
<g clip-path="url(#clip0)">
<path d="M43.584 2.69662H48.591V21.3034H43.584V13.9418H39.9161V21.3034H34.9091V2.69662H39.9161V10.319H43.584V2.69662Z" fill="white"/>
<path d="M50.9141 2.69662H56.0084V21.3034H50.9141V2.69662Z" fill="white"/>
<path d="M58.3336 2.69662H66.9793C69.8323 2.69662 71.2587 3.89458 71.2587 6.29045V11.6232C71.2587 14.0191 69.8323 15.217 66.9793 15.217H63.4279V21.3034H58.3336V2.69662ZM66.1644 10.9566V6.95706C66.1644 6.53196 65.9217 6.31944 65.4365 6.31944H63.4279V11.5942H65.4365C65.9217 11.5942 66.1644 11.3817 66.1644 10.9566Z" fill="white"/>
<path d="M85.5199 9.65242H80.4257V6.66722C80.4257 6.24215 80.1832 6.0296 79.698 6.0296H78.6791C78.1939 6.0296 77.9512 6.24215 77.9512 6.66722V17.3328C77.9512 17.7578 78.1939 17.9704 78.6791 17.9704H79.698C80.1832 17.9704 80.4257 17.7578 80.4257 17.3328V14.4635H85.5199V17.7095C85.5199 20.1054 84.0936 21.3034 81.2408 21.3034H77.1363C74.2833 21.3034 72.8569 20.1054 72.8569 17.7095V6.29045C72.8569 3.89458 74.2833 2.69662 77.1363 2.69662H81.2408C84.0936 2.69662 85.5199 3.89458 85.5199 6.29045V9.65242Z" fill="white"/>
<path d="M96.0902 2.69662H101.097V21.3034H96.0902V13.9418H92.4223V21.3034H87.4153V2.69662H92.4223V10.319H96.0902V2.69662Z" fill="white"/>
<path d="M112.939 21.3034L112.357 18.521H107.874L107.263 21.3034H102.256L107.059 2.69662H113.26L118.063 21.3034H112.939ZM108.66 14.9272H111.571L110.145 8.23226L108.66 14.9272Z" fill="white"/>
<path d="M124.321 14.6954V21.3034H119.226V2.69662H127.872C130.725 2.69662 132.151 3.89458 132.151 6.29045V11.1015C132.151 12.9371 131.317 14.0674 129.648 14.4925L133.083 21.3034H127.61L124.641 14.6954H124.321ZM126.329 6.31944H124.321V11.2464H126.329C126.814 11.2464 127.057 11.0339 127.057 10.6088V6.95706C127.057 6.53196 126.814 6.31944 126.329 6.31944Z" fill="white"/>
<path d="M145.445 2.69662V6.31944H141.835V21.3034H136.741V6.31944H133.161V2.69662H145.445Z" fill="white"/>
<path d="M153.906 17.0429V14.4056C153.906 13.9805 153.663 13.7679 153.178 13.7679H150.383C148.947 13.7679 147.928 13.4588 147.327 12.8405C146.745 12.2029 146.453 11.2947 146.453 10.1161V6.29045C146.453 3.89458 147.87 2.69662 150.704 2.69662H154.692C157.525 2.69662 158.942 3.89458 158.942 6.29045V8.5221H153.847V6.95706C153.847 6.53196 153.605 6.31944 153.12 6.31944H152.276C151.79 6.31944 151.548 6.53196 151.548 6.95706V9.71037C151.548 10.1355 151.79 10.348 152.276 10.348H155.012C156.448 10.348 157.467 10.6475 158.068 11.2464C158.689 11.8454 159 12.7246 159 13.8839V17.7095C159 20.1054 157.583 21.3034 154.75 21.3034H150.791C147.938 21.3034 146.512 20.1054 146.512 17.7095V15.4779H151.606V17.0429C151.606 17.468 151.849 17.6806 152.334 17.6806H153.178C153.663 17.6806 153.906 17.468 153.906 17.0429Z" fill="white"/>
<path d="M7.72315 0H0V7.63637H7.72315V0Z" fill="#0066FF"/>
<path d="M7.72315 8.18179H0V15.8182H7.72315V8.18179Z" fill="#0066FF"/>
<path d="M7.72315 16.3636H0V24H7.72315V16.3636Z" fill="#0066FF"/>
<path d="M15.9979 8.18179H8.27478V15.8182H15.9979V8.18179Z" fill="#0066FF"/>
<path d="M24.2727 0H16.5496V7.63637H24.2727V0Z" fill="#0066FF"/>
<path d="M24.2727 8.18179H16.5496V15.8182H24.2727V8.18179Z" fill="#0066FF"/>
<path d="M24.2727 16.3636H16.5496V24H24.2727V16.3636Z" fill="#0066FF"/>
</g>
<defs>
<clipPath id="clip0">
<rect width="159" height="24" fill="white"/>
</clipPath>
</defs>
</svg>
